<svg xmlns="http://www.w3.org/2000/svg" viewBox="0 0 73.582 65.11" fill="none">
  <path transform="translate(0.000 0.000)" fill="currentColor" d="M 10.919 12.133 C 10.926 12.302 10.463 13.249 10.114 13.911 C 10.003 14.118 9.833 13.946 9.746 14.093 C 9.576 14.383 9.594 14.71 9.414 15 C 9.353 15.098 9.064 14.877 9.007 14.984 C 8.702 15.554 8.634 16.171 8.41 16.791 C 8.137 17.546 7.885 18.309 7.643 19.092 C 6.905 21.508 6.201 23.908 5.462 26.324 C 5.139 27.385 4.513 28.603 4.377 29.731 C 4.361 29.862 4.666 29.855 4.684 29.885 C 4.953 30.353 4.405 30.087 4.269 30.317 C 3.73 31.231 3.456 32.329 3.374 33.303 C 3.34 33.717 3.996 33.427 3.592 33.77 C 3.564 33.794 3.278 33.629 3.223 33.735 C 3.099 33.969 3.061 34.465 3.001 34.653 C 2.882 35.022 2.873 35.086 2.806 35.442 C 2.711 35.933 2.46 36.488 2.446 37.029 C 2.444 37.145 2.785 37.045 2.81 37.234 C 2.836 37.419 2.737 37.89 2.639 38.042 C 2.54 38.189 2.301 38.085 2.239 38.105 C 1.722 38.266 2.313 38.924 2.321 38.991 C 2.386 39.846 2.207 40.565 2.03 41.317 C 1.931 41.729 1.838 42.15 1.803 42.587 C 1.729 43.497 1.812 44.479 1.778 45.349 C 1.738 46.386 1.574 47.272 1.64 48.289 C 1.647 48.396 2.019 48.257 2.029 48.386 C 2.126 49.767 2.187 51.139 2.083 52.542 C 2.072 52.682 1.724 52.541 1.693 52.683 C 1.511 53.558 1.055 55.022 2.561 55.296 C 2.593 55.868 2.656 56.564 2.468 57.122 C 2.347 57.478 1.931 57.235 2.163 57.61 C 2.215 57.694 2.501 57.514 2.555 57.643 C 2.784 58.183 2.823 58.819 3.122 59.322 C 3.183 59.423 3.449 59.321 3.506 59.338 C 3.972 59.488 3.433 60.081 3.417 60.194 C 3.341 60.581 3.396 60.913 3.484 61.16 C 3.535 61.299 3.588 61.404 3.643 61.494 C 3.666 61.532 3.694 61.572 3.702 61.578 C 3.702 61.584 3.729 61.575 3.556 61.436 C 3.368 61.304 3.309 61.222 3.389 61.159 C 3.447 61.095 3.594 61.047 3.355 60.916 C 3.375 60.913 3.398 60.915 3.428 60.924 C 4.843 61.417 5.443 62.201 5.82 62.569 C 5.905 62.661 5.649 62.889 5.686 62.949 C 5.873 63.217 6.154 62.668 6.293 62.848 C 6.327 62.886 6.233 63.148 6.233 63.179 C 6.269 63.684 6.54 63.038 6.562 63.025 C 6.981 62.867 7.416 63.53 8.009 63.282 C 8.074 63.251 7.833 62.952 8.018 62.888 C 8.669 62.655 9.372 62.356 10.108 62.042 C 10.715 61.788 11.318 61.489 11.917 61.156 C 12.112 61.046 12.166 61.347 12.197 61.363 C 12.709 61.592 12.367 60.979 12.4 60.913 C 12.681 60.397 13.479 60.354 13.101 59.535 C 14.863 57.81 15.528 55.293 17.06 53.13 C 17.079 53.102 17.376 53.269 17.412 53.211 C 17.852 52.515 17.306 52.494 16.861 51.804 C 16.749 51.63 17.599 51.482 17.664 51.462 C 17.901 51.399 18.338 51.673 18.39 51.643 C 18.798 51.383 17.202 50.967 17.335 50.507 C 17.341 50.493 17.616 50.637 17.656 50.607 C 17.781 50.513 17.699 50.36 17.833 50.27 C 18.141 50.064 18.944 50.169 18.605 49.626 C 18.56 49.558 17.635 49.401 17.785 48.997 C 17.847 48.835 18.014 48.09 18.12 47.897 C 18.228 47.703 18.488 47.915 18.504 47.903 C 19.024 47.428 19.135 47.678 19.776 47.522 C 20.414 47.364 19.028 47.138 18.901 46.989 C 18.774 46.84 19.185 46.493 19.319 46.412 C 19.453 46.332 19.613 46.501 19.696 46.422 C 20.237 45.9 19.07 46.014 18.893 45.771 C 18.472 45.201 19.565 45.033 19.747 44.62 C 19.796 44.508 19.546 44.56 19.544 44.452 C 19.538 44.024 19.904 43.829 19.694 43.309 C 19.66 43.223 19.111 42.737 19.605 42.567 C 19.676 42.543 19.914 42.687 20.002 42.518 C 20.132 42.27 20.267 41.803 20.227 41.503 C 20.197 41.282 19.737 41.456 19.91 41.212 C 19.988 41.103 20.2 41.361 20.324 41.154 C 20.448 40.95 20.524 40.385 20.547 40.168 C 20.571 39.952 20.233 40.022 20.214 40.001 C 20.106 39.876 20.011 39.447 20.017 39.411 C 20.242 37.582 21 35.959 21.032 34.145 C 21.035 34.003 20.685 34.057 20.682 34.035 C 20.596 33.538 21.453 34.023 21.794 33.721 C 21.1 33.69 21.248 33.505 21.212 33.157 C 21.193 32.99 20.917 33.048 20.891 33.03 C 20.514 32.742 21.056 32.633 21.168 32.602 C 21.579 32.485 21.134 32.258 21.409 32.178 C 21.682 32.098 22.042 32.393 22.073 32.066 C 21.836 31.948 21.165 32.118 21.088 31.859 C 20.968 31.458 21.015 30.937 21.12 30.409 C 21.27 29.668 21.515 28.913 21.572 28.477 C 21.667 27.745 21.628 27.495 21.73 27.069 C 21.91 26.291 21.422 26.566 21.206 26.086 C 20.986 25.609 22.169 25.836 22.424 25.766 C 22.677 25.696 22.415 25.619 22.554 25.531 C 22.693 25.442 22.868 25.63 22.918 25.423 C 22.969 25.213 22.502 24.663 22.233 24.603 C 21.664 24.472 21.084 24.738 21.27 24.204 C 21.281 24.173 21.596 24.259 21.622 24.141 C 21.821 23.208 21.758 22.235 21.86 21.287 C 21.874 21.156 22.232 21.23 22.244 21.153 C 22.366 20.34 21.821 20.692 21.121 20.366 C 21.988 20.339 22.482 20.03 22.39 19.429 C 22.335 19.071 21.973 19.195 21.672 19.015 C 21.581 18.96 21.79 18.664 21.607 18.651 C 21.01 18.611 20.418 18.959 20.557 18.327 C 20.564 18.299 20.891 18.319 20.892 18.226 C 20.896 17.62 20.289 17.679 20.075 17.086 C 19.908 16.621 20.041 15.679 19.936 15.119 C 20.872 14.858 20.499 14.389 19.795 14.387 C 19.71 14.029 19.547 13.661 19.517 13.298 C 19.506 13.172 19.797 13.154 19.821 13.129 C 20.188 12.741 19.52 12.809 19.468 12.744 C 18.938 12.028 19.122 11.179 18.346 10.624 C 18.317 10.604 17.685 10.84 18.042 10.438 C 18.066 10.41 18.459 10.53 18.318 10.167 C 18.179 9.81 18.178 8.984 17.646 8.65 C 17.518 8.566 16.885 8.544 17.131 8.107 C 17.165 8.048 17.352 7.988 17.421 7.891 C 17.638 7.577 17.002 7.835 17.407 7.379 C 17.813 6.925 17.969 6.329 17.333 6.066 C 17.314 6.057 16.786 6.231 16.7 6.081 C 16.563 5.84 16.44 5.451 16.272 5.212 C 16.192 5.099 15.966 5.362 15.947 5.346 C 15.268 4.696 15.121 3.999 14.584 3.143 C 14.486 2.986 13.8 2.886 13.837 2.389 C 13.865 1.834 15.364 1.02 14.424 0.599 C 14.225 0.51 13.634 0.774 13.166 0.887 C 12.712 0.97 12.428 0.998 12.443 0.383 C 11.243 -0.13 9.901 -0.74 8.666 -0.047 C 8.609 -0.016 8.588 0.592 8.47 0.621 C 8.288 0.663 8.099 0.441 7.96 0.473 C 7.373 0.605 6.991 1.056 6.495 1.311 C 6.306 1.41 6.221 1.131 5.991 1.26 C 5.762 1.393 5.835 1.791 5.453 1.858 C 5.447 1.859 5.441 1.86 5.434 1.86 C 5.14 1.887 4.446 1.518 4.096 1.749 C 4.62 2.286 4.421 2.452 4.311 2.916 C 4.291 3.005 4.551 3.093 4.553 3.142 C 4.572 3.339 4.316 3.33 4.363 3.529 C 4.374 3.577 4.59 3.714 4.613 3.758 C 4.821 4.128 4.16 4.176 4.037 4.212 C 3.584 4.302 3.849 4.546 3.645 4.687 C 3.44 4.84 3.356 4.481 3.195 4.696 C 2.86 5.149 2.785 5.847 2.736 6.376 C 2.735 6.38 2.735 6.384 2.734 6.389 C 2.715 6.603 3.066 6.48 3.071 6.512 C 3.127 6.938 2.766 7.387 3.451 7.605 C 1.708 7.961 3.624 7.856 3.321 8.468 C 3.297 8.517 2.476 8.66 2.338 8.476 C 2.199 8.29 2.438 7.979 2.24 7.714 C 2.192 7.656 1.409 7.281 1.364 7.219 C 1.001 6.777 2.249 6.763 2.316 6.749 C 2.652 6.656 2.672 6.514 2.592 6.364 C 2.494 6.183 2.246 5.985 2.223 5.913 C 2.028 5.311 2.303 4.847 2.273 4.311 C 2.258 3.959 1.512 3.639 1.649 3.365 C 2.159 2.431 3.248 2.835 3.029 1.532 C 2.996 1.255 2.197 0.787 3.226 0.73 C 3.296 0.718 4.097 0.841 4.066 0.353 C 4.063 0.29 3.901 0.089 3.928 0.04 C 3.941 0.015 3.956 -0.007 3.972 -0.028 C 4.142 -0.265 4.404 -0.248 4.611 -0.499 C 4.835 -0.77 5.113 -1.116 5.503 -1.23 C 5.739 -1.301 6.227 -1.006 6.374 -0.946 C 6.79 -0.77 6.878 -1.412 7.213 -1.099 C 7.533 -0.778 7.44 -0.074 7.95 0.025 C 7.742 -0.615 7.556 -1.281 7.37 -1.932 C 8.531 -2.296 9.858 -2.309 11.261 -2.074 C 11.437 -2.044 11.326 -2.436 11.526 -2.408 C 12.385 -2.271 12.997 -1.724 13.754 -1.324 C 14.086 -1.147 14.469 -1.009 14.845 -0.822 C 15.073 -0.745 15.3 -0.658 15.483 -0.531 C 15.139 0.218 15.808 0.551 16.091 0.986 C 16.19 1.137 16.026 1.262 16.058 1.402 C 16.176 1.925 16.552 1.318 16.719 1.351 C 17.437 1.504 16.27 2.507 16.69 2.991 C 16.712 3.015 17.622 2.861 17.699 2.881 C 18.19 2.988 17.506 3.1 17.594 3.324 C 17.756 3.739 17.756 4.08 18.234 4.362 C 18.373 4.441 18.994 4.455 18.813 4.909 C 18.789 4.968 18.549 5.096 18.551 5.13 C 18.611 5.722 19.34 5.286 19.751 5.409 C 20.164 5.536 19.892 6.247 19.791 6.414 C 19.533 6.85 19.533 6.337 19.488 6.347 C 18.965 6.463 19.211 6.715 19.301 6.966 C 18.589 7.406 18.802 7.69 19.394 7.222 C 19.458 7.17 19.293 7.031 19.301 6.966 C 20.128 6.767 20.423 7.089 19.946 7.838 C 19.72 8.186 19.261 8.2 19.674 8.687 C 19.86 8.91 20.331 8.562 20.581 8.721 C 21.156 9.093 20.975 10.004 21.279 10.52 C 21.39 10.707 21.601 10.393 21.687 10.518 C 21.915 10.85 21.825 11.267 22.076 11.591 C 22.099 11.621 22.377 11.422 22.424 11.537 C 22.791 12.415 22.849 13.254 23.121 14.196 C 23.253 14.646 23.651 15.421 23.731 15.906 C 23.878 16.754 23.618 17.862 23.857 18.549 C 24.012 18.997 24.318 18.841 24.573 19.005 C 25.069 19.327 24.396 20.134 24.287 20.237 C 24.284 20.24 24.151 19.852 24.013 20.088 C 23.681 20.259 24.285 20.233 24.287 20.237 C 24.22 20.307 24.246 21.119 24.323 21.269 C 24.367 21.352 24.672 21.269 24.689 21.313 C 25.084 22.369 25.24 23.461 25.129 24.575 C 25.124 24.595 24.773 24.577 24.764 24.622 C 24.628 25.256 25.058 25.66 25.31 26.188 C 25.561 26.719 25.465 27.147 24.855 27.435 C 24.918 27.833 24.625 28.39 24.444 28.7 C 24.263 29.011 24.938 29.104 24.949 29.134 C 25.216 29.818 25.05 30.259 24.878 30.811 C 24.817 31 24.755 31.202 24.713 31.435 C 24.639 31.849 24.645 32.688 24.668 33.149 C 24.687 33.513 24.504 33.71 24.567 34.052 C 24.575 34.098 24.881 34.088 24.891 34.103 C 25.208 34.514 24.493 34.25 24.353 34.311 C 23.843 34.531 23.569 34.668 23.737 35.166 C 23.776 35.281 24.795 35.727 24.833 35.933 C 24.879 36.201 24.512 36.057 24.57 36.338 C 24.575 36.362 24.809 36.387 24.778 36.553 C 24.635 37.325 24.388 38.154 24.299 38.963 C 24.286 39.073 24.676 38.984 24.664 39.144 C 24.602 39.903 24.468 40.723 24.181 41.429 C 24.11 41.601 23.869 41.448 23.786 41.475 C 23.284 41.64 23.905 42.088 23.908 42.147 C 24.016 43.537 23.226 44.465 23.249 45.883 C 23.252 45.96 23.854 46.684 23.185 46.813 C 23.141 46.823 22.46 46.942 22.841 47.259 C 22.865 47.278 23.223 47.188 23.13 47.459 C 23.038 47.73 23.157 48.218 22.713 48.522 C 22.574 48.618 21.884 48.753 22.296 49.227 C 22.326 49.254 23.31 50.094 22.486 50.099 C 22.35 50.098 21.542 49.857 21.851 50.388 C 21.911 50.491 22.131 50.391 22.189 50.635 C 22.276 51.014 21.938 51.395 22.183 51.902 C 22.228 51.988 22.687 52.462 22.197 52.583 C 22.12 52.602 21.872 52.448 21.803 52.568 C 21.477 53.126 21.447 53.832 21.048 54.385 C 20.907 54.583 20.516 54.32 20.321 54.505 C 20.126 54.69 19.852 55.092 19.954 55.405 C 20.056 55.716 20.834 55.72 20.747 56.101 C 20.353 57.77 19.229 59.152 18.222 60.632 C 18.07 60.853 18.411 60.806 18.197 61.143 C 17.467 62.377 15.779 64.646 14.258 65.038 C 13.1 65.34 14.019 64.256 13.247 64.59 C 12.89 64.737 12.966 65.678 12.884 65.756 C 12.679 65.967 12.459 66.115 12.236 66.226 C 11.745 66.469 11.266 66.512 10.747 66.814 C 10.598 66.9 10.882 67.154 10.752 67.224 C 10.288 67.472 9.717 67.508 9.184 67.676 C 8.954 67.749 9.053 67.994 8.812 68.028 C 8.236 68.107 7.662 68.079 7.006 67.848 C 6.951 67.826 7.321 67.496 6.853 67.49 C 6.075 67.478 5.093 67.071 4.155 66.907 C 3.889 66.864 3.567 67.384 3.281 66.742 C 3.231 66.608 3.709 66.075 2.907 66.284 C 2.756 66.314 1.591 66.483 1.791 65.964 C 1.832 65.819 2.058 65.262 1.952 65.307 C 1.94 65.317 1.794 65.603 1.749 65.613 C 1.699 65.628 1.705 65.657 1.744 65.685 C 1.118 65.474 0.72 65.158 0.477 64.942 C 0.277 64.763 0.133 64.599 0.012 64.45 C -0.206 64.175 -0.312 64.002 -0.426 63.817 C -0.518 63.664 -0.602 63.516 -0.68 63.373 C -0.748 63.252 -0.814 63.131 -0.881 63.01 C -0.991 62.812 -1.179 63.235 -1.323 62.956 C -1.716 62.178 -1.872 61.309 -1.941 60.631 C -1.965 60.381 -1.656 60.479 -1.632 60.454 C -1.233 60.051 -1.906 60.058 -1.966 59.972 C -2.326 59.446 -2.116 58.955 -2.3 58.458 C -2.35 58.319 -2.637 58.482 -2.67 58.459 C -2.997 58.211 -2.402 58.323 -2.377 58.128 C -2.305 57.578 -2.433 57.004 -2.558 56.487 C -2.604 56.298 -2.927 56.572 -2.964 56.401 C -3.192 55.383 -3.3 54.307 -3.212 53.283 C -3.195 53.092 -2.904 53.179 -2.845 53.133 C -2.43 52.819 -3.076 52.486 -3.143 52.399 C -3.446 52.013 -3.215 51.827 -3.292 51.463 C -3.675 49.692 -3.598 47.443 -3.474 45.731 C -3.345 43.9 -3.059 42.412 -2.84 40.752 C -2.792 40.396 -2.752 40.049 -2.718 39.676 C -2.705 39.545 -3.091 39.63 -3.085 39.517 C -2.991 38.057 -2.642 36.658 -2.501 35.185 C -2.489 35.065 -2.866 35.177 -2.858 34.982 C -2.844 34.58 -2.736 34.086 -2.55 33.706 C -2.461 33.522 -2.212 33.837 -2.128 33.652 C -1.932 33.222 -1.813 32.744 -1.773 32.27 C -1.757 32.069 -2.171 32.293 -2.123 32.037 C -1.798 30.282 -1.451 28.568 -0.571 26.984 C -0.51 26.874 0.226 26.953 0.152 26.672 C -0.041 26.603 -0.273 26.546 -0.482 26.484 C 0.025 24.018 0.88 21.74 1.477 19.355 C 1.502 19.256 1.084 19.339 1.13 19.147 C 1.245 18.663 1.336 18.186 1.454 17.7 C 1.618 17.025 1.825 16.391 2.206 15.746 C 2.271 15.635 2.92 15.856 2.904 15.485 C 2.902 15.411 2.941 14.869 2.833 14.692 C 2.816 14.668 2.482 14.69 2.517 14.512 C 2.722 13.497 3.073 12.458 3.582 11.476 C 3.666 11.316 3.933 11.6 3.996 11.485 C 4.454 10.683 4.454 9.711 5.414 8.694 C 6.182 7.96 6.467 8.586 7.268 8.65 C 7.326 8.658 7.519 8.55 7.746 8.524 C 7.975 8.495 8.171 8.563 8.201 8.728 C 8.305 9.568 8.442 10.482 8.606 11.369 C 8.612 11.47 8.442 11.483 8.471 11.509 C 8.504 11.54 8.524 11.605 8.476 11.839 C 8.474 11.853 8.484 11.911 8.696 11.941 C 8.902 11.974 9.21 11.932 9.334 11.951 C 9.522 11.971 9.434 12.42 9.801 12.363 C 10.175 12.286 10.149 11.888 10.348 11.899 C 10.537 11.928 10.873 12.119 10.919 12.133 Z M 23.615 30.084 C 23.262 30.345 24.448 30.508 24.194 30.158 C 24.181 30.141 23.633 30.07 23.615 30.084 Z M 9.896 -1.254 C 10.343 -0.737 10.727 -1.466 10.395 -1.902 C 10.017 -2.329 9.738 -1.407 9.896 -1.254 Z M 5.846 0.476 C 6.452 0.597 5.698 -0.925 5.392 -0.345 C 5.374 -0.312 5.809 0.471 5.846 0.476 Z M 6.34 10.228 C 6.353 10.235 6.482 9.997 6.471 9.987 C 6.193 9.685 5.928 10.174 6.34 10.228 Z M 3.284 3.759 C 3.547 3.727 3.515 3.236 3.177 3.259 C 2.894 3.289 2.943 3.815 3.284 3.759 Z M 20.323 44.718 C 20.305 44.719 20.258 44.878 20.358 44.894 C 20.679 44.944 20.632 44.7 20.323 44.718 Z M 2.941 10.433 C 2.846 9.451 4.168 8.712 4.154 9.74 C 4.154 9.929 3.653 9.409 3.563 9.662 C 3.4 10.133 4.317 10.278 3.926 10.8 C 3.854 10.895 2.943 10.49 2.938 10.432 C 2.939 10.433 2.94 10.433 2.941 10.433 Z M 22.169 30.113 C 22.153 30.117 22.115 30.344 22.13 30.351 C 22.495 30.515 22.572 30.054 22.169 30.113 Z M 17.165 53.805 C 17.131 53.802 16.915 54.284 16.937 54.31 C 17.417 54.795 17.861 53.809 17.165 53.805 Z M 19.959 15.103 C 19.523 14.976 19.396 14.718 19.795 14.389 C 19.844 14.627 19.912 14.861 19.959 15.103 Z"></path>
  <path transform="translate(33.818 5.218)" fill="currentColor" d="M -0.783 3.028 C -0.164 2.573 0.785 2.198 1.531 1.987 C 1.767 1.919 1.756 2.164 1.922 2.126 C 2.245 2.054 2.468 1.825 2.798 1.77 C 2.908 1.753 2.94 2.112 3.051 2.088 C 3.658 1.952 4.137 1.623 4.723 1.425 C 7.616 0.452 10.406 -0.593 13.496 -1.332 C 14.515 -1.573 15.828 -1.574 16.92 -1.866 C 17.046 -1.9 16.928 -2.181 16.949 -2.209 C 17.303 -2.632 17.249 -2.024 17.512 -1.976 C 18.129 -1.864 18.771 -1.819 19.426 -1.781 C 19.882 -1.753 20.36 -1.744 20.872 -1.699 C 21.4 -1.638 20.995 -2.333 21.479 -1.873 C 21.51 -1.841 21.291 -1.577 21.428 -1.504 C 21.735 -1.351 22.396 -1.115 22.615 -0.938 C 23.033 -0.613 23.093 -0.558 23.423 -0.268 C 23.519 -0.179 23.608 -0.082 23.693 0.019 C 23.983 0.366 24.236 0.78 24.547 1.096 C 24.633 1.183 24.79 0.858 24.954 0.985 C 25.12 1.112 25.395 1.567 25.42 1.756 C 25.448 1.944 25.193 2.012 25.16 2.069 C 24.87 2.523 25.728 2.688 25.779 2.756 C 26.656 3.861 26.652 5.097 26.938 6.249 C 27.158 7.133 27.447 8.06 27.538 8.905 C 27.581 9.307 27.589 9.686 27.59 10.058 C 27.594 10.662 27.551 11.243 27.552 11.849 C 27.551 11.958 27.932 11.842 27.932 11.977 C 27.922 13.394 27.672 14.753 27.153 15.999 C 27.1 16.124 26.811 15.889 26.739 16.009 C 26.308 16.75 25.367 17.765 26.622 18.615 C 26.421 19.123 26.173 19.738 25.749 20.109 C 25.475 20.348 25.224 19.953 25.254 20.357 C 25.26 20.448 25.595 20.441 25.581 20.572 C 25.521 21.125 25.231 21.647 25.202 22.207 C 25.198 22.32 25.474 22.389 25.511 22.435 C 25.811 22.821 25.017 22.998 24.939 23.064 C 24.341 23.6 24.287 24.133 24.029 24.748 C 23.969 24.888 24.39 24.864 24.345 25.005 C 24.105 25.739 23.76 26.467 23.304 27.083 C 23.202 27.221 22.967 26.95 22.903 27.009 C 22.623 27.269 23.151 27.59 22.892 27.843 C 22.838 27.896 22.602 27.746 22.569 27.745 C 22.05 27.732 22.594 28.172 22.586 28.226 C 22.497 28.911 21.676 28.999 21.496 29.609 C 21.475 29.683 21.866 29.679 21.786 29.878 C 21.259 31.207 20.495 32.513 19.594 33.627 C 19.454 33.801 19.293 33.54 19.258 33.537 C 18.705 33.499 19.239 33.944 19.228 34.019 C 19.13 34.6 18.377 34.795 18.909 35.513 C 18.519 36.065 18.179 36.638 17.846 37.221 C 16.984 38.727 16.128 40.238 14.748 41.355 C 14.724 41.375 14.476 41.143 14.43 41.184 C 13.872 41.673 14.38 41.851 14.634 42.607 C 14.697 42.797 13.856 42.66 13.791 42.654 C 13.554 42.632 13.214 42.247 13.159 42.256 C 12.714 42.341 14.097 43.241 13.843 43.604 C 13.833 43.613 13.618 43.391 13.572 43.404 C 13.428 43.443 13.461 43.606 13.311 43.637 C 12.966 43.706 12.261 43.316 12.414 43.904 C 12.434 43.98 13.239 44.462 12.975 44.755 C 12.868 44.872 12.477 45.442 12.314 45.564 C 12.151 45.685 11.985 45.4 11.967 45.404 C 11.339 45.59 11.321 45.334 10.691 45.197 C 10.063 45.061 11.238 45.828 11.302 46.006 C 11.366 46.184 10.876 46.297 10.728 46.305 C 10.58 46.313 10.495 46.106 10.393 46.135 C 9.727 46.33 10.812 46.741 10.884 47.019 C 11.056 47.676 10.02 47.33 9.707 47.585 C 9.622 47.655 9.864 47.725 9.826 47.814 C 9.673 48.166 9.279 48.154 9.267 48.673 C 9.265 48.758 9.566 49.404 9.065 49.312 C 8.993 49.299 8.837 49.073 8.696 49.168 C 8.485 49.308 8.187 49.62 8.106 49.878 C 8.047 50.068 8.519 50.145 8.273 50.258 C 8.163 50.308 8.076 50.004 7.886 50.111 C 7.697 50.217 7.41 50.631 7.305 50.792 C 7.2 50.952 7.524 51.057 7.533 51.082 C 7.579 51.231 7.492 51.62 7.473 51.646 C 6.554 52.992 5.242 53.912 4.506 55.333 C 4.448 55.444 4.777 55.565 4.772 55.584 C 4.654 56.017 4.086 55.233 3.667 55.314 C 4.268 55.662 4.066 55.739 3.964 56.031 C 3.915 56.173 4.183 56.254 4.198 56.28 C 4.422 56.683 3.9 56.518 3.789 56.492 C 3.379 56.395 3.688 56.78 3.413 56.717 C 3.14 56.656 2.934 56.257 2.781 56.503 C 2.945 56.705 3.606 56.877 3.577 57.117 C 3.52 57.586 3.16 58.084 2.775 58.536 C 2.736 58.579 2.712 58.605 2.708 58.586 C 2.706 58.568 2.73 58.527 2.737 58.365 C 2.739 58.295 2.738 58.156 2.666 57.989 C 2.599 57.821 2.429 57.638 2.258 57.558 C 1.96 57.429 1.861 57.477 1.77 57.483 C 1.606 57.521 1.645 57.53 1.632 57.538 C 1.63 57.546 1.648 57.544 1.665 57.541 C 1.697 57.538 1.743 57.524 1.796 57.504 C 1.983 57.439 2.176 57.347 2.315 57.26 C 2.869 56.912 3.002 56.746 3.365 56.578 C 4.01 56.28 3.526 56.047 3.723 55.613 C 3.933 55.169 4.496 56.231 4.703 56.393 C 4.911 56.553 4.799 56.308 4.945 56.371 C 5.091 56.435 5.069 56.672 5.241 56.603 C 5.415 56.534 5.523 55.875 5.41 55.626 C 5.171 55.098 4.632 54.768 5.139 54.637 C 5.169 54.631 5.289 54.931 5.391 54.892 C 6.199 54.569 6.9 54.055 7.696 53.732 C 7.806 53.687 7.929 54.027 7.995 54.005 C 8.683 53.775 8.138 53.451 8.071 52.7 C 8.506 53.45 8.983 53.755 9.411 53.459 C 9.67 53.282 9.409 53.005 9.426 52.669 C 9.431 52.568 9.762 52.655 9.695 52.486 C 9.479 51.932 8.936 51.515 9.54 51.419 C 9.567 51.416 9.68 51.722 9.76 51.692 C 10.276 51.499 9.999 50.955 10.458 50.575 C 10.822 50.274 11.717 50.164 12.21 49.958 C 12.679 50.806 12.984 50.383 12.856 49.696 C 13.169 49.561 13.494 49.356 13.832 49.302 C 13.949 49.282 13.998 49.569 14.024 49.59 C 14.423 49.931 14.29 49.28 14.35 49.226 C 14.765 48.875 15.265 48.845 15.71 48.712 C 15.752 48.697 15.876 48.689 15.921 48.689 C 16.177 48.705 16.443 48.682 16.739 48.541 C 16.767 48.527 16.893 47.862 17.041 48.377 C 17.049 48.413 16.759 48.684 17.115 48.754 C 17.477 48.825 18.07 49.291 18.619 49.09 C 18.75 49.041 19.173 48.574 19.316 49.049 C 19.335 49.113 19.254 49.292 19.275 49.408 C 19.339 49.776 19.584 49.135 19.611 49.74 C 19.638 50.345 19.854 50.85 20.428 50.606 C 20.446 50.599 20.713 50.116 20.859 50.17 C 21.089 50.257 21.388 50.473 21.629 50.552 C 21.746 50.59 21.781 50.248 21.803 50.249 C 22.655 50.347 23.109 50.841 23.875 51.3 C 24.014 51.384 24.628 51.15 24.77 51.61 C 24.922 52.114 23.927 53.466 24.784 53.431 C 25.122 53.416 26.404 51.714 26.436 52.941 C 27.551 53.203 28.182 54.179 29.329 54.406 C 29.38 54.416 29.813 53.994 29.912 54.062 C 30.057 54.163 30 54.447 30.098 54.527 C 30.504 54.867 31.035 54.923 31.443 55.227 C 31.597 55.341 31.389 55.542 31.573 55.68 C 31.756 55.817 32.084 55.589 32.247 55.912 C 32.368 56.157 32.133 56.912 32.337 57.159 C 32.77 56.549 32.934 56.679 33.359 56.736 C 33.441 56.747 33.526 56.489 33.573 56.483 C 33.766 56.455 33.748 56.707 33.941 56.665 C 33.987 56.655 34.137 56.448 34.184 56.429 C 34.592 56.258 34.559 56.945 34.549 57.062 C 34.524 57.515 34.813 57.317 34.873 57.549 C 34.932 57.78 34.598 57.763 34.716 57.965 C 34.967 58.39 35.441 58.706 35.792 59.006 C 35.931 59.123 36.05 58.78 36.075 58.79 C 36.144 58.824 36.202 58.872 36.254 58.924 C 36.496 59.096 36.723 59.332 37.074 58.886 C 36.689 60.617 37.341 58.817 37.716 59.291 C 37.747 59.328 37.592 60.147 37.386 60.216 C 37.176 60.284 36.996 59.956 36.69 60.04 C 36.626 60.066 35.968 60.629 35.887 60.64 C 35.314 60.769 35.872 59.646 35.892 59.581 C 35.896 59.566 35.899 59.551 35.902 59.536 C 35.882 59.523 35.823 59.486 35.806 59.47 C 36.073 58.839 35.279 59.233 35.173 59.222 C 34.662 59.155 34.47 58.787 34.057 58.713 C 33.79 58.666 33.286 59.304 33.15 59.172 C 32.702 58.741 33.174 57.685 32.121 58.148 C 31.897 58.248 31.497 59.05 31.521 58.22 C 31.523 58.167 31.603 57.449 31.215 57.676 C 31.167 57.705 31.024 57.92 30.985 57.921 C 30.727 57.918 30.723 57.668 30.473 57.623 C 30.222 57.577 29.908 57.55 29.73 57.334 C 29.623 57.204 29.702 56.685 29.698 56.544 C 29.691 56.139 29.197 56.491 29.295 56.069 C 29.391 55.644 29.95 55.247 29.773 54.828 C 29.416 55.397 29.034 55.974 28.669 56.543 C 28.013 56.124 27.452 55.554 26.749 55.209 C 26.661 55.167 26.577 55.532 26.48 55.496 C 26.07 55.342 25.851 54.937 25.401 54.826 C 25.052 54.742 24.543 54.92 24.179 54.855 C 24.308 54.064 23.705 54.075 23.378 53.857 C 23.262 53.78 23.352 53.595 23.289 53.495 C 23.046 53.122 22.94 53.816 22.807 53.876 C 22.241 54.135 22.789 52.695 22.291 52.541 C 22.264 52.532 21.663 53.181 21.605 53.214 C 21.224 53.428 21.661 52.93 21.514 52.811 C 21.247 52.596 21.09 52.333 20.651 52.44 C 20.521 52.472 20.116 52.878 20.03 52.438 C 20.019 52.381 20.113 52.126 20.096 52.104 C 19.772 51.729 19.521 52.546 19.226 52.762 C 18.932 52.979 18.745 52.324 18.713 52.142 C 18.633 51.671 18.9 51.995 18.92 51.957 C 19.166 51.491 18.889 51.51 18.699 51.421 C 18.864 50.601 18.564 50.583 18.502 51.332 C 18.495 51.414 18.667 51.374 18.699 51.421 C 18.33 52.176 18.037 52.215 17.852 51.398 C 17.763 51.016 17.994 50.63 17.474 50.694 C 17.24 50.725 17.232 51.306 17.021 51.432 C 16.594 51.691 16.165 51.242 15.753 51.189 L 16.415 51.117 C 16.374 51.125 16.334 51.139 16.298 51.16 C 16.171 51.233 16.399 51.491 16.317 51.55 C 16.101 51.711 15.804 51.571 15.587 51.792 C 15.569 51.812 15.75 52.093 15.676 52.129 C 15.102 52.415 14.476 52.496 13.824 52.854 C 13.506 53.029 13.045 53.515 12.706 53.686 C 12.118 53.98 11.162 54.041 10.749 54.469 C 10.481 54.746 10.738 54.969 10.735 55.245 C 10.733 55.778 9.833 55.465 9.7 55.413 C 9.695 55.411 9.916 55.156 9.675 55.121 C 9.385 54.895 9.702 55.41 9.7 55.413 C 9.614 55.378 9.04 55.705 8.972 55.835 C 8.936 55.904 9.154 56.132 9.132 56.163 C 8.595 56.91 7.946 57.507 7.144 57.946 C 7.128 57.951 6.932 57.66 6.896 57.675 C 6.389 57.873 6.387 58.418 6.198 58.888 C 6.011 59.358 5.681 59.508 5.102 59.198 C 4.885 59.463 4.321 59.561 3.986 59.606 C 3.641 59.66 3.998 60.237 3.975 60.27 C 3.887 60.401 3.837 60.487 3.697 60.612 C 3.56 60.729 3.471 60.824 3.07 61.009 C 2.954 61.055 2.929 61.085 2.562 61.179 C 2.224 61.231 1.768 61.412 0.738 61.032 C 0.038 60.775 -0.692 59.981 -0.896 59.303 C -1.131 58.649 -1.052 58.063 -1.048 58.008 C -1.011 57.671 -0.943 57.465 -0.886 57.3 C -0.751 56.944 -0.71 56.906 -0.648 56.793 C -0.589 56.695 -0.533 56.613 -0.476 56.536 C -0.278 56.318 -0.037 56.119 0.185 55.82 C 0.413 55.514 0.736 54.828 0.899 54.445 C 1.026 54.141 1.267 54.065 1.346 53.761 C 1.357 53.72 1.083 53.586 1.08 53.569 C 0.963 53.091 1.49 53.635 1.638 53.652 C 2.176 53.712 2.473 53.729 2.522 53.253 C 2.534 53.144 1.813 52.308 1.864 52.124 C 1.93 51.888 2.195 52.177 2.257 51.924 C 2.263 51.903 2.066 51.772 2.16 51.654 C 2.594 51.106 3.141 50.566 3.539 49.966 C 3.594 49.885 3.216 49.771 3.291 49.649 C 3.642 49.08 4.08 48.497 4.6 48.077 C 4.73 47.975 4.883 48.209 4.966 48.227 C 5.471 48.332 5.094 47.689 5.113 47.641 C 5.541 46.495 6.573 46.138 7.038 45.006 C 7.062 44.944 6.766 44.109 7.403 44.302 C 7.446 44.315 8.094 44.517 7.854 44.102 C 7.838 44.076 7.491 43.99 7.658 43.818 C 7.826 43.647 7.872 43.208 8.357 43.159 C 8.51 43.143 9.173 43.322 8.939 42.773 C 8.923 42.735 8.26 41.678 9.006 42.006 C 9.128 42.061 9.798 42.575 9.659 42.027 C 9.631 41.922 9.404 41.915 9.415 41.698 C 9.431 41.363 9.83 41.192 9.721 40.695 C 9.701 40.607 9.378 40.071 9.85 40.154 C 9.924 40.167 10.12 40.378 10.207 40.308 C 10.625 39.974 10.772 39.428 11.22 39.111 C 11.38 38.998 11.705 39.33 11.913 39.239 C 12.121 39.148 12.433 38.891 12.368 38.61 C 12.303 38.329 11.578 38.112 11.69 37.834 C 12.148 36.695 13.074 35.887 13.731 34.911 C 13.773 34.848 13.814 34.785 13.854 34.721 C 13.957 34.555 13.651 34.569 13.786 34.317 C 14.285 33.386 14.927 31.676 15.834 31.12 C 16.564 30.67 16.437 31.648 16.856 31.229 C 17.058 31.025 16.439 30.381 16.444 30.312 C 16.492 29.621 17.021 29.398 17.172 28.829 C 17.203 28.713 16.845 28.666 16.874 28.569 C 16.97 28.237 17.264 27.979 17.38 27.671 C 17.431 27.534 17.183 27.446 17.259 27.333 C 17.436 27.065 17.658 26.849 18.012 26.669 C 18.044 26.652 18.258 26.964 18.369 26.753 C 18.547 26.411 18.968 26.068 18.92 25.562 C 18.905 25.41 18.362 25.164 18.853 25.072 C 18.955 25.052 19.582 25.408 19.146 24.859 C 19.073 24.769 18.525 23.93 19.124 23.894 C 19.282 23.885 19.893 23.945 19.87 23.761 C 19.864 23.735 19.535 23.692 19.557 23.559 C 19.636 23.094 19.849 22.66 19.926 22.188 C 19.946 22.062 19.569 22.113 19.608 21.93 C 19.717 21.421 20.019 20.86 20.284 20.429 C 20.382 20.272 20.599 20.483 20.631 20.48 C 21.162 20.442 20.587 20.099 20.574 20.02 C 20.502 19.531 20.903 19.311 20.95 18.903 C 20.964 18.791 20.642 18.769 20.622 18.739 C 20.433 18.439 20.916 18.774 21.019 18.654 C 21.312 18.317 21.421 17.876 21.496 17.474 C 21.522 17.327 21.127 17.386 21.155 17.257 C 21.313 16.479 21.544 15.712 21.895 15.027 C 21.962 14.897 22.217 15.042 22.286 15.026 C 22.766 14.915 22.225 14.505 22.18 14.428 C 21.976 14.077 22.238 14.014 22.235 13.738 C 22.218 12.634 22.389 11.415 22.393 10.547 C 22.39 10.331 22.386 10.125 22.379 9.929 C 22.314 8.304 22.318 7.024 21.764 5.779 C 21.729 5.701 21.415 5.917 21.381 5.855 C 20.963 5.053 20.669 4.299 20.099 3.852 C 20.054 3.817 19.854 4.117 19.776 4.073 C 19.755 4.061 19.733 4.048 19.712 4.033 C 19.581 3.944 19.571 3.912 19.676 3.864 C 19.728 3.833 19.861 3.56 19.902 3.528 C 19.998 3.456 20.054 3.434 19.92 3.464 C 19.866 3.479 19.873 3.847 19.814 3.841 C 19.712 3.832 19.506 3.823 19.258 3.82 C 18.591 3.813 17.692 3.874 16.65 3.732 C 16.555 3.72 16.323 3.02 16.159 3.202 C 16.19 3.404 16.245 3.637 16.288 3.85 C 14.471 4.397 12.466 4.842 10.524 5.601 C 10.442 5.633 10.731 5.934 10.574 5.998 C 9.664 6.37 8.834 6.856 7.747 6.939 C 7.639 6.948 7.394 6.308 7.167 6.529 C 7.127 6.568 6.757 6.846 6.714 7.032 C 6.71 7.059 6.922 7.31 6.796 7.382 C 6.056 7.793 5.232 8.125 4.386 8.344 C 4.25 8.379 4.223 8.01 4.124 8.032 C 3.417 8.196 2.874 8.778 2.138 8.828 C 1.645 8.86 1.51 8.265 1.021 7.874 C 0.952 7.819 0.7 7.944 0.524 7.657 C 0.081 6.936 -0.246 6.058 -0.732 5.297 C -0.836 5.133 -1.075 5.505 -1.101 4.983 C -1.102 4.947 -0.931 4.675 -0.947 4.502 C -0.958 4.382 -1.199 4.125 -1.18 3.954 C -1.161 3.783 -0.929 3.982 -0.865 3.759 C -0.802 3.534 -1.051 3.226 -0.783 3.028 Z M 0.605 57.494 C 0.72 57.432 0.756 57.367 0.75 57.29 C 0.696 57.149 0.339 56.92 0.209 56.957 C 0.153 56.995 0.113 57.067 0.105 57.192 C 0.103 57.228 0.579 57.51 0.605 57.494 Z M 27.894 54.774 C 27.867 54.155 27.301 54.73 27.302 55.195 C 27.3 55.659 27.9 54.961 27.894 54.774 Z M 30.963 56.167 C 30.867 55.612 29.911 57.014 30.43 56.938 C 30.459 56.934 30.969 56.199 30.963 56.167 Z M 1.924 7.196 C 1.913 7.184 1.729 7.266 1.732 7.282 C 1.818 7.667 2.186 7.504 1.924 7.196 Z M 33.962 57.714 C 34.003 57.459 33.568 57.472 33.521 57.79 C 33.483 58.046 33.912 58.031 33.962 57.714 Z M 9.23 47.248 C 9.246 47.256 9.346 47.147 9.263 47.09 C 8.995 46.906 8.949 47.124 9.23 47.248 Z M 39.234 60.249 C 38.371 60.045 38.185 58.568 39.017 58.888 C 39.173 58.945 38.593 59.266 38.775 59.427 C 39.119 59.723 39.506 58.892 39.825 59.415 C 39.885 59.512 39.284 60.264 39.232 60.25 C 39.233 60.25 39.233 60.249 39.234 60.249 Z M 1.958 58.022 C 1.974 58.026 2.093 57.862 2.082 57.849 C 1.854 57.597 1.644 57.808 1.834 57.957 C 1.852 57.972 1.874 57.986 1.9 57.998 C 1.918 58.006 1.937 58.014 1.958 58.022 Z M 14.779 40.72 C 14.813 40.73 15.101 40.351 15.083 40.321 C 14.698 39.776 14.12 40.533 14.779 40.72 Z M 12.23 49.976 C 12.24 49.532 12.468 49.357 12.855 49.696 C 12.64 49.78 12.439 49.886 12.23 49.976 Z"></path>
</svg>